<?xml version="1.0" standalone="no"?>
<!DOCTYPE svg PUBLIC "-//W3C//DTD SVG 20010904//EN"
 "http://www.w3.org/TR/2001/REC-SVG-20010904/DTD/svg10.dtd">
<svg version="1.0" xmlns="http://www.w3.org/2000/svg"
 width="2900.000000pt" height="2900.000000pt" viewBox="0 0 2900.000000 2900.000000"
 preserveAspectRatio="xMidYMid meet">
<metadata>
Created by potrace 1.11, written by Peter Selinger 2001-2013
</metadata>
<g transform="translate(0.000000,2900.000000) scale(0.100000,-0.100000)"
fill="#000000" stroke="none">
<path d="M23600 18901 c-8 -6 -18 -7 -22 -5 -4 3 -8 0 -8 -6 0 -6 -4 -9 -9 -5
-5 3 -12 1 -16 -5 -4 -6 -11 -8 -16 -5 -5 4 -9 1 -9 -6 0 -9 -3 -9 -14 0 -11
10 -17 8 -25 -6 -6 -10 -11 -15 -11 -10 0 4 -13 1 -30 -8 -16 -8 -33 -16 -37
-17 -5 -2 -16 -9 -26 -18 -10 -8 -21 -15 -25 -16 -20 -2 -41 -17 -36 -25 3 -5
0 -9 -5 -9 -6 0 -19 -8 -29 -17 -10 -10 -35 -33 -56 -50 -21 -18 -35 -37 -31
-43 3 -5 0 -10 -7 -10 -20 0 -116 -160 -117 -197 -1 -7 -6 -13 -12 -13 -8 0
-7 -6 2 -17 12 -14 12 -16 0 -8 -11 6 -13 3 -9 -13 3 -12 1 -23 -5 -25 -5 -1
-10 -24 -11 -50 -1 -26 -5 -47 -11 -47 -5 0 -3 -5 5 -10 12 -8 12 -10 1 -10
-11 0 -11 -3 -1 -15 11 -13 10 -14 -3 -9 -14 5 -14 1 -4 -31 8 -28 8 -38 -2
-44 -10 -6 -8 -10 5 -15 16 -6 16 -8 4 -16 -8 -6 -10 -10 -4 -10 5 0 9 -13 8
-30 -1 -16 2 -30 7 -30 4 0 5 -7 2 -17 -4 -10 -2 -14 5 -9 7 4 10 -3 8 -21 -3
-38 83 -207 133 -260 22 -23 36 -44 33 -48 -4 -3 1 -3 9 0 11 4 18 -1 22 -14
3 -12 13 -24 24 -28 10 -4 23 -14 30 -22 7 -9 13 -12 13 -8 0 4 12 -3 27 -17
15 -14 40 -28 55 -31 15 -4 28 -11 28 -16 0 -5 9 -9 20 -9 11 0 20 -5 20 -12
0 -6 3 -9 6 -5 4 3 20 -1 36 -9 23 -12 28 -12 23 -2 -6 10 -5 11 6 1 7 -7 21
-13 31 -13 10 0 19 -6 19 -12 1 -7 2 -218 3 -468 1 -250 4 -455 7 -455 3 0 14
-6 23 -14 10 -9 20 -11 24 -5 9 12 62 13 62 1 0 -6 5 -6 13 -1 11 8 32 10 47
4 15 -6 50 -6 50 1 0 4 8 6 18 5 13 -1 17 6 16 31 -1 18 2 30 7 27 5 -3 5 5 0
18 -5 14 -5 31 0 40 6 11 5 19 -1 23 -5 3 -10 11 -10 16 0 6 4 7 10 4 5 -3 8
0 5 7 -11 31 -13 68 -4 74 5 3 6 11 2 17 -10 16 -11 87 -1 81 4 -3 6 1 3 8 -9
25 -12 117 -4 112 5 -3 5 5 0 18 -5 13 -5 33 0 46 5 12 5 22 1 22 -4 0 -7 27
-7 59 0 33 3 57 7 55 4 -3 6 1 3 8 -9 25 -12 117 -4 112 5 -3 5 5 0 18 -5 13
-5 33 0 46 5 12 5 22 0 22 -8 0 -5 70 3 78 2 2 20 4 39 5 19 1 33 6 30 10 -3
5 3 7 13 5 11 -2 25 3 32 12 8 8 11 9 7 3 -4 -9 -1 -11 9 -7 9 3 16 10 16 15
0 5 3 8 8 8 24 -4 42 2 36 13 -5 8 -2 9 9 5 10 -3 17 -2 17 3 0 5 11 12 25 16
14 3 22 10 19 15 -3 5 1 9 8 9 7 0 26 11 42 25 16 13 32 22 37 19 5 -3 6 3 2
12 -4 12 -3 15 5 10 7 -4 12 -2 12 3 0 14 48 56 63 56 7 0 21 -8 31 -17 11
-10 28 -18 38 -18 10 0 18 -4 18 -10 0 -5 8 -10 18 -10 10 0 28 -9 39 -19 12
-11 24 -17 27 -14 3 4 6 1 6 -5 0 -7 3 -12 8 -11 14 2 52 -13 52 -21 0 -9 28
-20 44 -19 5 0 12 -5 17 -13 5 -7 12 -13 16 -14 17 -1 63 -28 63 -36 0 -5 4
-7 9 -3 5 3 16 -1 24 -9 8 -8 17 -12 21 -9 3 3 8 -1 12 -10 3 -9 12 -13 19
-11 7 3 16 0 20 -5 3 -6 22 -18 41 -26 20 -8 33 -19 29 -24 -3 -6 3 -8 14 -6
10 2 27 -4 38 -14 10 -10 24 -16 31 -13 6 2 12 -1 12 -7 0 -6 7 -11 15 -11 8
0 15 -4 15 -10 0 -5 9 -10 20 -10 11 0 20 -5 20 -12 0 -6 3 -9 6 -5 4 3 13 -1
21 -9 8 -8 19 -12 24 -9 5 4 9 1 9 -5 0 -6 5 -8 10 -5 6 3 10 -1 10 -9 0 -9 3
-15 8 -14 12 4 72 -24 72 -34 0 -6 7 -8 15 -4 8 3 15 1 15 -4 0 -6 7 -10 15
-10 8 0 15 -5 15 -11 0 -6 7 -8 15 -5 9 3 18 -1 21 -9 4 -8 12 -15 18 -15 7 0
18 -6 25 -12 6 -7 16 -14 22 -14 5 -1 14 -2 20 -3 5 0 7 -6 3 -13 -4 -6 -3 -8
4 -4 6 3 17 0 25 -8 8 -8 17 -12 21 -9 3 4 12 -2 20 -12 7 -10 17 -15 23 -12
5 3 15 -3 23 -13 8 -10 18 -16 22 -13 5 3 16 -3 24 -13 9 -11 12 -12 8 -4 -6
13 -4 13 12 -1 36 -30 96 -59 106 -53 6 4 8 3 5 -3 -3 -5 9 -16 28 -23 19 -8
35 -18 35 -22 0 -5 4 -7 9 -4 5 3 14 -1 21 -9 7 -8 21 -15 32 -15 10 0 16 -4
13 -10 -3 -5 1 -10 9 -10 9 0 16 -5 16 -11 0 -5 4 -8 9 -4 5 3 12 1 16 -5 4
-6 11 -8 16 -5 5 4 12 0 15 -9 3 -8 12 -12 20 -9 8 3 14 0 14 -6 0 -6 7 -11
15 -11 8 0 15 -5 15 -11 0 -5 5 -7 10 -4 6 3 10 1 10 -5 0 -6 5 -8 10 -5 6 3
10 1 10 -4 0 -6 9 -11 19 -11 11 0 21 -4 23 -8 2 -5 37 -26 78 -48 41 -21 77
-42 78 -46 2 -5 8 -6 13 -2 5 3 9 0 9 -5 0 -6 7 -11 16 -11 25 0 55 -39 45
-59 -5 -9 -6 -22 -3 -30 2 -8 1 -11 -4 -8 -10 6 -18 -76 -16 -168 2 -58 8
-130 12 -130 1 0 3 -8 5 -17 6 -31 27 -93 36 -104 5 -6 6 -14 2 -17 -3 -4 -1
-7 5 -7 7 0 12 -7 12 -15 0 -45 124 -205 159 -205 6 0 11 -7 11 -15 0 -8 5
-15 10 -15 6 0 22 -12 35 -26 14 -15 25 -24 25 -20 0 4 7 1 15 -6 33 -30 45
-38 45 -32 0 3 11 -1 25 -10 13 -9 31 -16 40 -16 8 0 15 -5 15 -11 0 -5 4 -8
8 -5 5 3 19 -1 33 -8 13 -7 30 -11 37 -8 6 2 21 -3 33 -12 l22 -15 0 -1176 c0
-646 -2 -1178 -5 -1180 -2 -3 -17 -6 -31 -7 -15 -1 -27 -6 -27 -10 0 -4 -9 -5
-20 -3 -11 2 -20 0 -20 -6 0 -5 -3 -8 -7 -7 -5 1 -33 -9 -63 -22 -30 -14 -59
-24 -63 -22 -5 1 -6 -2 -2 -8 6 -9 -7 -14 -20 -7 -2 1 -12 -8 -20 -20 -9 -13
-21 -23 -26 -23 -5 0 -24 -15 -42 -32 -17 -18 -35 -32 -39 -31 -4 2 -8 -2 -8
-8 0 -7 -10 -21 -23 -33 -13 -12 -26 -29 -30 -39 -3 -9 -11 -17 -17 -17 -6 0
-8 -4 -5 -10 3 -5 1 -10 -4 -10 -6 0 -11 -6 -11 -14 0 -8 -5 -16 -10 -18 -6
-2 -12 -13 -13 -26 0 -12 -7 -22 -14 -22 -7 0 -10 -6 -7 -14 3 -8 -1 -20 -9
-27 -8 -7 -12 -22 -9 -33 3 -12 1 -17 -6 -12 -7 4 -10 0 -8 -11 2 -10 -1 -29
-7 -43 -16 -38 -20 -115 -14 -277 1 -18 4 -33 7 -33 4 0 7 -6 8 -12 1 -18 9
-49 20 -78 8 -23 5 -28 -39 -57 -26 -18 -52 -33 -57 -33 -5 0 -15 -7 -22 -15
-7 -8 -16 -12 -21 -9 -5 3 -8 0 -7 -8 2 -7 -4 -12 -12 -10 -8 2 -19 -3 -25
-10 -14 -19 -95 -70 -95 -61 0 5 -5 0 -11 -9 -5 -10 -17 -18 -24 -18 -8 0 -15
-3 -15 -8 0 -4 -14 -13 -30 -20 -17 -8 -28 -18 -24 -23 3 -5 2 -8 -3 -7 -14 4
-53 -13 -53 -23 0 -6 -4 -8 -9 -5 -5 3 -12 -1 -15 -10 -3 -8 -10 -12 -16 -9
-5 3 -10 2 -10 -3 0 -5 -12 -15 -27 -23 -16 -7 -39 -21 -52 -31 -13 -10 -27
-15 -32 -12 -5 3 -9 1 -9 -3 0 -12 -87 -73 -104 -73 -7 0 -19 -7 -26 -15 -7
-8 -16 -12 -21 -9 -5 3 -9 -2 -9 -10 0 -9 -5 -16 -10 -16 -12 0 -94 -52 -98
-63 -2 -4 -8 -5 -13 -1 -5 3 -12 -2 -15 -10 -3 -9 -9 -14 -14 -11 -4 2 -17 -5
-29 -16 -12 -12 -25 -19 -27 -16 -3 3 -17 -6 -31 -19 -14 -13 -32 -24 -39 -24
-8 0 -14 -5 -14 -11 0 -5 -4 -7 -10 -4 -5 3 -10 2 -10 -4 0 -6 -16 -18 -35
-27 -19 -9 -35 -21 -35 -26 0 -5 -4 -6 -10 -3 -5 3 -10 1 -10 -6 0 -7 -3 -10
-6 -6 -3 3 -15 -2 -25 -12 -11 -10 -32 -24 -47 -32 -15 -8 -54 -32 -87 -54
-33 -22 -64 -40 -68 -40 -4 0 -11 -6 -16 -13 -5 -8 -10 -13 -12 -12 -8 4 -79
-42 -79 -52 0 -5 -4 -7 -10 -3 -5 3 -18 -3 -30 -15 -11 -11 -25 -20 -30 -20
-6 0 -20 -9 -32 -20 -12 -10 -25 -17 -30 -14 -4 3 -8 0 -8 -6 0 -6 -10 -15
-22 -20 -31 -13 -61 -33 -70 -45 -5 -7 -8 -7 -8 0 0 6 -5 3 -10 -5 -5 -8 -13
-15 -17 -15 -17 -1 -132 -82 -126 -89 4 -4 0 -4 -10 0 -11 4 -17 1 -17 -7 0
-7 -3 -10 -6 -6 -4 3 -12 1 -20 -6 -33 -30 -42 -35 -48 -30 -3 4 -6 1 -6 -6 0
-9 -4 -9 -14 1 -7 8 -33 30 -56 49 -23 18 -47 39 -54 45 -6 5 -26 17 -43 25
-18 7 -33 18 -33 22 0 5 -6 7 -12 5 -7 -3 -19 1 -26 9 -8 7 -18 11 -23 8 -5
-4 -9 -1 -9 5 0 6 -4 8 -10 5 -5 -3 -10 -1 -10 5 0 6 -5 8 -10 5 -6 -4 -16 -2
-23 3 -7 5 -24 9 -39 8 -18 -1 -28 3 -28 12 0 7 -3 11 -7 9 -5 -3 -8 26 -8 63
0 37 3 66 7 63 5 -2 4 6 -1 19 -5 14 -5 31 0 40 6 11 5 19 -1 23 -5 3 -10 11
-10 16 0 6 4 7 10 4 5 -3 8 0 5 7 -11 31 -13 68 -4 74 5 3 6 11 2 17 -10 16
-11 87 -1 81 4 -3 6 1 3 8 -9 25 -12 117 -4 112 5 -3 5 5 0 18 -5 13 -5 33 0
46 5 12 5 22 1 22 -4 0 -7 27 -7 59 0 33 3 57 7 55 4 -3 5 1 3 9 -10 23 -11
91 -3 115 4 12 4 22 -1 22 -5 0 -8 8 -8 18 0 9 -1 22 -2 27 -1 10 -180 11
-206 1 -8 -3 -17 -1 -20 4 -3 5 -11 7 -18 4 -9 -3 -12 -112 -12 -464 0 -253
-3 -460 -8 -460 -4 0 -5 -4 -2 -10 6 -10 -3 -13 -37 -13 -10 0 -18 -3 -18 -7
0 -4 -7 -7 -15 -8 -8 -1 -22 -3 -30 -4 -8 -1 -15 -5 -15 -9 0 -7 -49 -24 -62
-21 -5 1 -8 -5 -8 -13 0 -8 -6 -12 -12 -10 -7 3 -25 -6 -40 -20 -16 -14 -28
-22 -28 -18 0 4 -7 -1 -15 -11 -8 -11 -15 -16 -15 -12 0 17 -136 -131 -155
-169 -11 -22 -25 -47 -32 -55 -6 -8 -12 -18 -12 -23 0 -4 -7 -20 -15 -36 -9
-16 -12 -31 -9 -34 3 -4 1 -12 -4 -19 -16 -20 -31 -104 -35 -190 -1 -16 -6
-28 -11 -28 -5 0 -5 -6 1 -13 6 -7 12 -41 14 -75 2 -34 7 -62 12 -62 5 0 7 -3
3 -6 -3 -3 -1 -18 5 -33 5 -14 11 -33 13 -41 8 -36 10 -45 15 -50 16 -16 38
-68 32 -75 -4 -5 -2 -5 4 -2 6 3 16 -9 23 -29 7 -19 16 -32 20 -29 4 2 14 -8
22 -23 8 -15 24 -35 37 -45 12 -10 20 -23 16 -28 -3 -5 -2 -9 3 -8 20 3 34 -2
28 -11 -3 -5 -1 -10 5 -10 12 0 32 -15 58 -42 9 -10 24 -18 34 -18 10 0 18 -4
18 -10 0 -5 7 -10 15 -10 8 0 15 -4 15 -10 0 -5 9 -10 20 -10 11 0 20 -5 20
-11 0 -6 7 -9 15 -5 8 3 20 0 27 -7 7 -7 27 -13 43 -15 17 -2 31 -7 33 -12 2
-5 15 -6 28 -4 14 3 23 1 21 -3 -3 -4 39 -9 94 -9 54 -1 99 2 99 7 0 5 5 9 11
9 5 0 7 -5 3 -12 -5 -8 -2 -9 12 -4 10 4 35 9 54 12 19 2 37 8 40 12 6 8 28
15 53 16 9 0 17 4 17 8 0 4 3 7 8 6 12 -3 102 45 102 55 0 4 5 5 10 2 6 -3 10
-1 10 6 0 7 3 10 6 7 3 -4 21 9 41 28 19 19 38 34 42 34 4 0 32 30 62 68 29
37 58 70 62 73 5 3 8 9 8 13 -3 20 0 26 9 21 6 -3 7 1 4 9 -3 9 -2 16 3 16 8
0 34 59 34 75 0 2 6 20 14 39 8 18 11 36 8 40 -4 3 -1 6 6 6 7 0 10 10 7 25
-3 15 0 25 7 25 8 0 7 3 -2 9 -7 5 -9 11 -4 14 12 7 14 145 2 152 -4 3 -4 16
1 30 6 16 6 27 -1 31 -6 3 -8 12 -5 20 3 8 1 14 -3 14 -5 0 -8 8 -7 18 2 9 0
19 -4 22 -15 10 -18 65 -4 78 8 7 14 10 14 7 0 -3 16 6 35 21 19 14 35 22 35
18 0 -5 4 -4 8 1 12 17 72 57 72 48 0 -4 5 0 11 10 5 9 16 17 23 17 8 0 19 7
26 15 7 9 15 13 18 10 3 -2 10 2 16 11 6 8 20 17 31 18 11 2 19 9 17 15 -1 6
4 11 12 11 8 0 21 6 28 14 8 7 24 17 36 20 12 4 22 12 22 17 0 6 5 7 10 4 6
-3 10 -1 10 5 0 5 16 18 35 27 19 9 35 21 35 26 0 5 7 7 15 3 8 -3 15 -1 15 4
0 6 7 10 16 10 8 0 12 5 9 10 -6 9 8 14 28 11 4 -1 10 6 13 14 4 8 12 15 20
15 8 0 14 5 14 11 0 5 5 7 10 4 6 -3 10 -1 10 6 0 7 3 9 7 6 3 -4 15 4 27 16
12 12 26 24 31 25 6 2 26 13 45 25 19 12 40 24 45 26 6 2 21 12 34 22 13 10
28 16 35 12 6 -3 8 -3 4 2 -7 8 74 65 92 65 6 0 10 5 10 12 0 6 3 9 6 5 4 -3
13 1 21 9 8 8 19 12 24 8 5 -3 8 0 7 8 -2 7 3 12 10 10 6 -1 12 2 12 8 0 5 7
10 15 10 8 0 15 5 15 10 0 6 7 10 15 10 8 0 15 5 15 12 0 6 3 9 6 5 4 -3 13 1
21 9 8 8 20 11 26 7 7 -3 9 -2 4 2 -7 8 49 48 86 61 9 4 17 10 17 14 0 9 40
25 53 22 5 -1 6 1 3 6 -3 5 7 15 22 23 15 8 29 16 32 19 3 3 19 12 35 20 17 8
38 22 48 32 10 10 22 16 27 13 5 -3 14 4 20 15 6 11 15 18 20 15 5 -3 13 3 19
12 6 10 11 14 11 9 0 -5 8 -2 18 7 9 8 22 17 27 19 6 2 9 7 7 12 -2 5 4 6 13
3 8 -4 15 -2 15 4 0 5 16 17 35 25 19 8 35 18 35 23 0 8 42 24 47 18 2 -1 10
8 18 21 9 12 23 22 31 22 8 0 14 4 14 9 0 8 27 19 42 17 4 -1 14 8 22 19 9 11
16 16 16 12 0 -4 12 3 27 17 15 14 30 23 35 20 4 -3 8 -1 8 4 0 20 32 21 52 2
12 -11 29 -20 37 -20 12 0 13 -2 3 -8 -9 -6 -6 -12 13 -20 14 -6 25 -16 25
-22 0 -5 8 -10 18 -10 11 0 27 -9 37 -20 10 -11 20 -18 23 -15 3 2 18 -5 33
-16 16 -11 29 -17 29 -13 0 3 6 2 13 -4 7 -6 28 -14 47 -17 19 -3 36 -10 38
-15 2 -5 10 -6 19 -3 12 5 14 3 8 -8 -7 -11 -6 -12 7 -2 8 7 18 10 21 6 9 -8
43 -11 117 -12 97 0 120 2 120 13 0 6 5 4 10 -4 7 -11 10 -12 10 -2 0 8 6 12
13 9 6 -2 28 2 46 10 19 7 40 12 47 9 6 -2 22 5 35 17 13 12 24 20 24 18 0 -9
45 11 45 20 0 6 5 7 10 4 6 -3 10 -1 10 5 0 6 4 9 10 5 5 -3 17 2 27 12 10 10
36 32 58 48 21 17 45 38 54 49 9 10 33 37 53 60 21 22 38 47 38 54 0 7 7 20
15 29 8 8 13 18 10 23 -3 4 2 11 11 14 8 3 12 10 9 16 -3 5 -1 10 5 10 7 0 10
7 6 15 -3 8 1 20 8 27 7 8 12 21 10 31 -1 9 1 17 5 17 4 0 7 10 8 22 1 11 6
24 10 27 11 8 13 41 2 41 -6 0 -6 7 0 18 5 9 8 43 7 75 0 31 3 57 9 57 5 0 4
5 -2 11 -6 6 -9 18 -6 25 3 8 0 14 -7 14 -6 0 -8 5 -5 10 4 6 12 8 18 4 7 -3
5 0 -3 8 -15 13 -20 30 -23 76 0 12 -5 22 -10 22 -4 0 -5 10 -2 21 5 15 4 19
-4 15 -6 -4 -12 -2 -12 3 -3 21 -5 27 -28 74 -12 26 -28 47 -34 47 -5 0 -7 3
-4 7 4 4 -5 19 -20 35 -15 15 -23 28 -19 28 5 0 -13 21 -40 47 -27 26 -48 51
-46 56 1 4 -2 6 -7 3 -5 -4 -16 1 -24 9 -9 8 -19 15 -23 15 -3 0 -14 8 -23 18
-9 9 -23 18 -31 20 -8 2 -16 8 -18 13 -2 5 -11 9 -20 9 -9 0 -26 7 -36 15 -10
8 -23 12 -27 9 -5 -3 -9 0 -9 5 0 6 -13 11 -30 11 -16 0 -30 4 -30 10 0 5 -6
7 -12 5 -7 -3 -20 -1 -28 5 -12 7 -15 43 -15 205 -1 108 3 199 7 201 5 3 5 11
1 17 -12 19 -10 327 2 327 7 0 7 3 0 8 -12 8 -15 590 -3 608 4 6 4 14 0 18
-10 10 -10 566 0 572 5 3 5 11 1 17 -13 21 -10 390 3 404 6 7 14 9 18 6 3 -3
11 -1 18 4 7 6 21 9 31 8 9 -2 17 1 17 7 0 6 7 8 15 4 8 -3 15 0 15 6 0 6 3 9
6 5 4 -3 13 1 21 9 8 8 18 12 22 9 5 -2 17 4 28 15 12 10 23 16 26 13 4 -3 12
1 20 8 7 8 26 23 41 34 16 11 34 25 41 32 7 7 16 9 20 5 4 -4 5 -1 3 7 -2 8 8
20 22 28 14 7 21 13 15 13 -5 0 -1 7 9 15 11 8 16 15 12 15 -5 0 2 9 15 20 13
10 21 19 17 20 -7 0 10 25 39 55 7 7 9 15 6 19 -4 3 0 6 7 6 7 0 11 3 7 6 -3
4 0 19 9 35 8 16 15 32 15 36 0 5 5 14 11 21 6 6 8 12 5 12 -3 0 1 16 9 35 8
19 11 35 8 35 -4 0 -2 6 3 13 5 6 9 49 9 94 -1 46 3 83 8 83 4 0 1 11 -8 24
-10 16 -12 27 -5 31 7 5 6 11 -2 21 -9 11 -9 14 1 14 9 0 10 3 1 13 -6 8 -12
23 -14 35 -2 12 -6 25 -10 28 -4 4 -7 15 -7 24 0 20 -23 70 -32 70 -4 0 -5 7
-2 15 4 8 1 15 -6 15 -6 0 -8 5 -5 10 3 6 2 10 -3 10 -5 0 -15 14 -22 30 -7
17 -16 30 -21 30 -5 0 -9 7 -9 16 0 8 -4 12 -10 9 -5 -3 -10 1 -10 9 0 9 -9
21 -20 28 -11 7 -20 18 -20 25 0 7 -3 13 -7 13 -5 0 -24 14 -43 30 -19 16 -38
30 -42 30 -5 0 -8 6 -8 14 0 9 -7 13 -19 11 -11 -2 -22 3 -25 11 -3 8 -12 14
-21 14 -8 0 -15 4 -15 10 0 5 -3 10 -7 9 -16 -2 -53 14 -48 20 2 4 -6 7 -18 6
-12 -1 -32 5 -44 13 -13 8 -29 12 -38 9 -8 -4 -17 -2 -20 4 -4 5 -11 7 -16 4
-5 -4 -9 -2 -9 2 0 5 -17 8 -37 8 -21 -1 -44 3 -50 8 -9 6 -13 5 -13 -2 0 -7
-5 -9 -12 -5 -19 12 -48 12 -48 0 0 -6 -5 -4 -10 4 -5 8 -10 10 -10 4 0 -7
-17 -10 -42 -9 -48 2 -70 -3 -63 -15 2 -4 -9 -6 -25 -4 -16 2 -32 -1 -35 -6
-4 -6 -11 -8 -16 -5 -5 4 -9 1 -9 -5 0 -6 -4 -9 -9 -5 -5 3 -13 0 -16 -6 -4
-5 -13 -8 -21 -5 -8 3 -14 1 -14 -4 0 -6 -7 -10 -15 -10 -9 0 -18 -7 -21 -15
-4 -8 -10 -12 -15 -9 -5 3 -9 0 -9 -7 0 -7 -3 -9 -6 -6 -4 4 -24 -7 -44 -23
-20 -16 -40 -27 -44 -23 -3 3 -6 -1 -6 -11 0 -9 -4 -14 -10 -11 -5 3 -10 1
-10 -4 0 -6 -9 -20 -20 -31 -11 -11 -20 -17 -20 -13 0 4 -7 -2 -15 -14 l-15
-21 -42 21 c-24 12 -45 25 -48 28 -3 3 -24 14 -47 24 -24 11 -43 23 -43 28 0
5 -6 7 -14 4 -8 -3 -17 1 -20 9 -3 8 -12 14 -19 14 -8 0 -20 7 -27 15 -7 8
-21 15 -32 15 -10 0 -16 5 -13 10 4 6 3 9 -2 8 -13 -4 -73 23 -73 34 0 5 -4 6
-10 3 -5 -3 -10 -1 -10 5 0 6 -4 8 -10 5 -5 -3 -10 -1 -10 5 0 6 -5 8 -10 5
-6 -3 -13 1 -16 9 -3 9 -10 14 -14 11 -5 -3 -11 -1 -15 5 -4 6 -11 8 -16 5 -5
-4 -9 -1 -9 4 0 6 -7 11 -15 11 -9 0 -18 6 -21 14 -3 8 -14 13 -25 11 -11 -2
-18 -1 -15 3 2 4 -19 18 -47 32 -29 14 -55 30 -59 35 -4 6 -8 6 -8 2 0 -5 -7
-1 -16 7 -8 9 -20 14 -25 11 -5 -4 -9 -1 -9 5 0 6 -4 8 -10 5 -5 -3 -10 -1
-10 5 0 10 -48 35 -62 32 -5 -1 -8 2 -8 7 0 5 -16 15 -35 22 -19 7 -35 17 -35
22 0 4 -4 5 -10 2 -5 -3 -10 -1 -10 6 0 7 -3 10 -6 6 -3 -3 -15 3 -27 14 -11
10 -27 19 -35 19 -8 0 -25 9 -39 20 -14 11 -32 20 -39 20 -8 0 -14 5 -14 11 0
5 -4 8 -9 4 -5 -3 -16 2 -24 10 -9 8 -22 15 -30 15 -9 0 -17 4 -19 8 -3 8 -79
50 -145 81 -18 8 -33 19 -33 24 0 4 -5 5 -10 2 -6 -3 -13 0 -16 9 -3 8 -11 13
-18 10 -7 -3 -19 2 -26 11 -7 8 -19 15 -26 15 -8 0 -14 5 -14 11 0 5 -4 8 -9
4 -5 -3 -15 1 -23 8 -7 7 -28 19 -45 26 -18 7 -33 17 -33 22 0 5 -9 9 -20 9
-11 0 -20 4 -20 9 0 8 -37 24 -52 22 -5 -1 -8 3 -8 8 0 5 -11 12 -25 15 -14 4
-23 10 -21 15 3 5 -3 11 -14 14 -13 3 -18 1 -13 -6 3 -6 -9 1 -29 16 -19 15
-40 27 -46 27 -7 0 -12 5 -12 10 0 6 -9 10 -20 10 -11 0 -20 3 -20 8 0 4 -15
13 -32 21 -39 17 -82 52 -86 70 -1 7 2 10 8 6 8 -5 16 30 11 58 0 4 5 7 12 7
8 0 7 4 -3 10 -10 6 -11 10 -3 10 15 0 13 21 -2 32 -6 5 -5 8 3 8 15 0 17 86
2 95 -6 4 -7 12 -3 18 11 17 11 30 0 45 -6 8 -5 12 2 12 7 0 9 5 4 13 -8 12
-13 32 -15 55 -1 6 -5 12 -10 12 -5 0 -6 5 -3 10 4 6 1 17 -5 25 -7 8 -9 15
-5 15 4 0 2 6 -4 13 -6 8 -9 16 -6 19 3 3 -1 11 -10 18 -8 7 -15 21 -15 31 0
10 -8 23 -17 28 -10 6 -14 11 -9 11 5 0 1 9 -9 20 -10 11 -14 20 -10 20 4 0
-2 8 -13 19 -12 10 -19 21 -15 25 3 3 -1 6 -10 6 -8 0 -19 9 -22 20 -3 11 -11
20 -16 20 -6 0 -7 5 -3 12 4 6 3 8 -3 5 -6 -4 -19 4 -29 18 -10 13 -21 22 -25
19 -5 -2 -13 5 -19 16 -6 11 -15 18 -19 15 -5 -3 -12 2 -15 11 -3 8 -10 12
-16 9 -5 -3 -10 -2 -10 3 0 4 -16 14 -35 22 -19 7 -32 17 -29 22 3 4 -4 9 -15
10 -12 0 -27 1 -33 2 -7 1 -19 7 -26 14 -8 7 -18 9 -24 6 -6 -4 -14 -1 -18 5
-4 7 -23 13 -43 14 -21 1 -37 5 -37 10 0 10 -23 4 -32 -8 -5 -6 -8 -5 -8 3 0
10 -20 13 -86 11 -47 -2 -88 -7 -90 -11 -3 -4 -10 -8 -15 -8 -6 0 -7 5 -4 10
8 12 4 12 -15 1z m64 -263 c-5 -7 -3 -8 7 -2 19 12 119 13 119 1 0 -5 7 -4 15
3 8 7 15 8 15 3 0 -5 6 -10 13 -11 41 -3 57 -7 57 -14 0 -4 9 -8 20 -8 11 0
20 -4 20 -10 0 -5 9 -10 20 -10 11 0 20 -5 20 -12 0 -6 3 -9 6 -5 3 3 17 -4
31 -16 56 -48 85 -77 77 -77 -5 0 -1 -5 9 -11 9 -5 17 -17 17 -24 0 -8 5 -15
10 -15 6 0 10 -7 10 -15 0 -8 4 -15 8 -15 5 0 9 -7 10 -15 1 -8 3 -22 4 -30 1
-8 5 -15 10 -15 4 0 8 -11 8 -25 0 -14 6 -25 13 -25 8 0 7 -4 -3 -10 -8 -5
-10 -10 -5 -10 6 0 12 -14 13 -31 2 -22 -1 -28 -10 -23 -10 6 -10 5 -1 -7 12
-15 12 -36 0 -56 -4 -6 -3 -15 3 -18 8 -5 7 -11 -1 -21 -6 -8 -9 -17 -5 -21 3
-3 -2 -15 -11 -26 -10 -11 -12 -17 -6 -13 9 5 11 2 7 -8 -3 -9 -11 -16 -18
-16 -6 0 -4 -5 4 -10 10 -7 11 -10 2 -10 -7 0 -18 -12 -25 -27 -17 -40 -51
-79 -125 -143 -28 -24 -132 -71 -142 -65 -6 3 -10 2 -10 -3 0 -5 -9 -12 -20
-15 -11 -3 -18 -1 -14 4 3 5 -6 5 -20 -1 -14 -5 -26 -7 -26 -5 0 2 -11 0 -25
-5 -15 -6 -26 -6 -30 1 -4 5 -11 7 -16 4 -5 -4 -9 -1 -9 6 0 9 -3 10 -10 3
-12 -12 -90 4 -90 19 0 4 -4 6 -8 3 -12 -7 -100 41 -129 70 -13 13 -28 24 -33
24 -6 0 -10 7 -10 15 0 8 -7 15 -17 15 -9 0 -14 3 -10 6 3 3 -3 15 -14 27 -10
11 -19 27 -19 34 0 7 -4 13 -10 13 -5 0 -10 9 -10 20 0 11 -4 20 -10 20 -5 0
-10 12 -10 26 0 16 -4 23 -11 18 -8 -5 -8 -1 0 14 6 11 7 22 2 24 -4 2 -10 24
-13 50 -3 26 -3 46 1 44 3 -2 6 24 6 59 0 35 2 61 4 59 7 -7 32 57 26 66 -3 4
2 10 10 14 8 3 15 12 15 21 0 8 5 15 11 15 5 0 7 5 4 10 -3 6 -1 10 4 10 6 0
11 7 11 16 0 8 5 12 10 9 6 -3 10 1 10 9 0 9 4 16 10 16 5 0 23 14 40 31 16
18 30 29 30 26 0 -4 9 1 20 11 12 9 23 15 27 14 3 -2 9 1 12 7 6 9 32 17 64
20 5 1 5 5 2 11 -3 5 0 7 9 4 8 -3 23 -1 33 5 23 13 26 13 17 -1z m3316 -1734
c25 -3 57 -7 72 -7 14 -1 24 -6 20 -11 -3 -5 2 -7 11 -3 10 3 17 2 17 -3 0 -6
9 -10 20 -10 11 0 20 -5 20 -11 0 -6 7 -9 15 -5 8 3 15 1 15 -5 0 -5 8 -13 18
-16 28 -11 119 -106 127 -133 4 -14 14 -29 21 -35 7 -5 14 -19 16 -30 2 -11 6
-23 10 -26 5 -3 9 -17 10 -32 1 -15 5 -27 9 -27 3 0 5 -39 4 -87 -2 -49 -3
-88 -4 -88 -2 0 -4 -11 -7 -24 -2 -14 -9 -30 -15 -38 -6 -7 -8 -13 -5 -13 4 0
1 -10 -6 -22 -7 -13 -11 -27 -10 -31 1 -4 -5 -10 -13 -13 -8 -4 -15 -11 -15
-18 -1 -15 -65 -86 -79 -86 -6 0 -11 -7 -11 -16 0 -8 -4 -12 -10 -9 -5 3 -10
2 -10 -3 0 -10 -87 -55 -107 -55 -7 0 -13 -4 -13 -9 0 -5 -4 -6 -10 -3 -5 3
-10 2 -10 -3 0 -5 -20 -8 -45 -8 -25 1 -45 -2 -45 -5 0 -3 -18 -6 -40 -5 -22
0 -40 5 -40 11 0 5 -5 3 -10 -5 -7 -11 -10 -12 -10 -2 0 8 -10 13 -22 12 -35
-3 -50 -1 -45 8 3 4 -6 8 -20 9 -14 0 -29 6 -33 13 -4 6 -11 11 -16 11 -17 -1
-63 23 -58 31 3 4 -2 8 -10 8 -8 0 -21 9 -29 20 -8 11 -17 17 -20 13 -4 -3 -7
1 -7 11 0 10 -5 14 -12 10 -6 -4 -8 -3 -5 3 4 5 -2 19 -12 30 -24 26 -73 114
-67 120 3 3 -1 17 -8 32 -7 14 -12 43 -12 64 1 20 -3 37 -9 37 -5 0 -3 5 5 10
13 9 13 10 0 10 -9 0 -11 3 -5 8 6 4 11 23 12 42 3 29 9 78 12 88 1 1 1 5 0 8
0 4 3 10 8 13 5 3 16 22 25 41 9 20 25 45 35 57 10 12 24 30 32 42 8 11 18 18
23 15 4 -3 11 2 14 10 6 17 74 62 87 58 4 -1 7 2 7 6 0 5 11 14 25 20 19 9 25
9 25 0 0 -6 9 -3 20 7 13 11 35 19 56 18 19 0 37 3 40 8 2 4 10 6 17 4 7 -2
32 -7 57 -11z m-88 -3763 c13 7 18 6 18 -3 0 -8 3 -9 8 -3 8 12 57 13 68 2 4
-4 13 -2 20 4 10 9 15 7 20 -4 3 -9 12 -13 20 -10 8 3 25 -2 39 -11 17 -11 25
-13 25 -5 0 8 7 6 18 -4 10 -10 24 -17 30 -17 7 0 12 -4 12 -10 0 -5 9 -10 21
-10 11 0 17 -4 14 -10 -3 -5 -2 -10 4 -10 31 0 162 -176 144 -194 -3 -3 0 -6
7 -6 7 0 11 -3 7 -6 -3 -4 1 -20 9 -36 10 -20 11 -28 3 -23 -8 6 -10 4 -3 -6
13 -21 13 -132 0 -148 -9 -12 -8 -13 2 -7 11 7 12 4 3 -13 -7 -11 -9 -21 -5
-21 3 0 -1 -12 -11 -26 -11 -18 -12 -24 -4 -18 12 6 12 5 0 -9 -7 -9 -10 -17
-5 -17 5 0 3 -4 -5 -9 -8 -5 -16 -17 -17 -26 -2 -17 -34 -57 -64 -82 -8 -7
-11 -13 -6 -13 6 0 -10 -14 -35 -32 -24 -18 -47 -36 -50 -41 -3 -5 -8 -8 -10
-7 -9 3 -39 -13 -35 -19 3 -4 -4 -8 -15 -9 -43 -4 -49 -6 -49 -14 0 -5 -5 -6
-11 -2 -6 3 -15 0 -20 -7 -5 -9 -9 -10 -9 -2 0 6 -9 9 -20 6 -11 -3 -17 -10
-13 -16 4 -6 1 -7 -7 -2 -7 4 -41 8 -76 9 -35 0 -64 4 -64 9 0 4 -4 5 -10 2
-5 -3 -16 -3 -22 2 -7 4 -15 8 -18 9 -31 6 -60 18 -60 25 0 5 -3 8 -7 7 -5 -1
-18 3 -29 10 -12 6 -25 8 -29 4 -3 -4 -5 0 -3 8 2 8 -3 14 -9 12 -7 -1 -13 6
-13 15 0 9 -3 14 -6 11 -7 -8 -42 25 -37 35 2 4 -3 7 -12 7 -9 0 -13 5 -10 10
3 6 2 10 -3 10 -12 0 -68 114 -81 163 -5 21 -8 47 -6 57 2 11 -2 20 -8 20 -7
0 -6 4 3 10 11 7 11 10 2 10 -9 0 -10 6 -4 18 4 9 7 32 6 49 -1 18 2 35 7 39
5 3 7 10 4 15 -4 5 -1 9 5 9 6 0 8 5 5 10 -3 6 -3 16 2 23 4 6 8 14 9 17 11
37 18 50 26 50 5 0 7 4 4 8 -3 5 20 35 51 68 30 32 52 52 47 44 -4 -8 4 -3 18
12 26 27 91 61 141 73 15 4 30 12 33 17 4 6 10 6 17 -1 7 -7 16 -7 29 0z
m-3222 -2034 c0 6 30 9 73 7 80 -3 96 -6 115 -17 6 -5 16 -6 21 -3 5 3 14 -1
21 -9 7 -8 16 -13 20 -10 5 3 16 -3 26 -12 10 -10 19 -16 21 -13 9 15 143
-114 143 -138 0 -7 7 -15 15 -18 8 -4 12 -10 9 -15 -3 -5 0 -9 6 -9 6 0 8 -4
5 -10 -3 -5 -2 -10 4 -10 5 0 8 -9 6 -20 -2 -11 -1 -20 3 -20 14 0 29 -68 19
-86 -6 -11 -6 -15 0 -11 9 6 11 -67 3 -83 -7 -13 -4 -36 5 -42 6 -5 5 -8 -2
-8 -7 0 -10 -7 -7 -15 4 -8 1 -15 -6 -15 -6 0 -8 -4 -5 -10 3 -5 2 -10 -2 -10
-5 0 -9 -9 -10 -21 -1 -11 -9 -32 -18 -45 -8 -13 -15 -26 -15 -29 0 -5 -26
-36 -77 -92 -13 -13 -23 -22 -23 -19 0 4 -9 -3 -20 -14 -11 -11 -27 -20 -35
-20 -8 0 -15 -3 -15 -7 0 -11 -51 -33 -61 -27 -5 3 -9 0 -9 -6 0 -7 -7 -10
-15 -7 -8 4 -17 1 -21 -4 -3 -6 -15 -9 -25 -6 -10 3 -21 2 -24 -3 -3 -4 -33
-6 -67 -4 -72 4 -88 6 -105 17 -8 5 -13 3 -13 -5 -1 -8 -5 -7 -14 5 -8 10 -18
17 -22 16 -13 -4 -84 33 -84 43 0 5 -4 7 -9 3 -6 -3 -13 1 -18 8 -4 7 -19 21
-33 30 -13 9 -22 17 -19 17 4 0 -9 16 -27 36 -19 19 -34 41 -34 48 0 8 -7 19
-15 26 -8 7 -12 16 -9 21 3 5 1 9 -5 9 -6 0 -8 7 -5 15 4 8 1 15 -5 15 -6 0
-8 7 -4 17 4 10 2 14 -4 10 -9 -6 -13 29 -14 123 0 56 11 120 22 120 6 0 8 4
4 10 -3 5 4 29 15 53 18 38 37 64 88 122 39 44 136 101 188 111 19 3 34 11 34
16 0 6 6 5 15 -2 8 -7 15 -8 15 -3z"/>
<path d="M10422 17066 c-19 -21 -19 -66 -19 -2051 0 -1844 1 -2032 16 -2052
16 -22 17 -22 327 -23 309 0 311 0 331 23 l21 22 0 2030 c0 1989 -1 2030 -20
2051 -18 21 -26 21 -328 21 -302 0 -310 0 -328 -21z"/>
<path d="M20391 17066 c-20 -21 -20 -46 -20 -2051 l0 -2030 21 -22 c21 -23 23
-23 328 -23 305 0 307 0 327 23 l20 22 0 2032 0 2033 -21 18 c-20 18 -41 19
-328 19 -299 0 -308 -1 -327 -21z"/>
<path d="M3535 15969 c-189 -27 -409 -121 -555 -237 -54 -43 -122 -112 -170
-171 l-35 -43 1 188 c2 179 1 188 -20 209 -21 21 -27 21 -326 21 -291 -1 -306
-2 -326 -21 l-21 -20 0 -1455 c-1 -1453 0 -1455 20 -1477 20 -23 22 -23 327
-23 305 0 307 0 327 23 20 22 21 29 21 847 0 739 2 885 16 955 51 259 222 451
485 542 24 8 56 17 70 20 290 52 514 -16 626 -192 54 -84 84 -180 111 -355 4
-25 8 -439 8 -922 1 -844 2 -877 20 -897 19 -20 27 -21 328 -21 292 0 309 1
328 20 19 19 19 42 22 902 4 814 5 888 22 948 100 361 426 570 823 528 146
-15 248 -61 339 -152 100 -100 164 -264 180 -466 4 -47 7 -456 7 -910 0 -817
0 -825 20 -847 20 -23 22 -23 327 -23 287 0 308 1 327 19 20 19 20 26 20 958
0 516 -4 978 -8 1027 -48 527 -334 879 -813 999 -109 27 -137 30 -286 31 -192
1 -251 -5 -378 -39 -244 -65 -429 -178 -628 -382 l-100 -103 -18 37 c-20 43
-91 142 -133 188 -120 131 -339 251 -509 280 -22 3 -61 10 -88 14 -64 11 -284
11 -361 0z"/>
<path d="M8370 15964 c-171 -22 -337 -73 -485 -147 -345 -172 -632 -494 -755
-847 -67 -193 -85 -310 -84 -545 1 -177 5 -211 39 -375 12 -59 60 -192 101
-280 72 -153 164 -280 304 -421 243 -244 478 -364 845 -434 48 -9 193 -19 280
-19 383 -1 720 113 1000 337 88 71 229 222 295 316 191 271 281 570 274 916
-5 245 -46 430 -139 631 -147 318 -435 603 -751 745 -72 32 -204 78 -244 85
-14 3 -41 9 -60 14 -148 38 -429 49 -620 24z m485 -643 c321 -84 560 -348 619
-682 18 -107 18 -290 0 -397 -56 -320 -270 -575 -564 -671 -193 -64 -453 -57
-640 16 -36 14 -76 33 -90 42 -14 9 -37 23 -52 30 -41 21 -174 147 -219 208
-196 265 -230 697 -79 1008 100 207 289 371 505 437 136 42 380 46 520 9z"/>
<path d="M8567 14699 c-128 -19 -216 -125 -217 -261 0 -65 10 -97 48 -151 115
-168 367 -139 458 52 22 45 23 152 2 202 -47 110 -168 176 -291 158z"/>
<path d="M12689 15976 c-2 -2 -35 -7 -73 -10 -38 -3 -97 -13 -130 -22 -34 -9
-72 -18 -85 -20 -74 -14 -254 -90 -355 -151 -435 -261 -680 -655 -721 -1163
-15 -173 -5 -423 20 -510 2 -8 7 -28 9 -45 44 -251 193 -532 383 -718 343
-336 758 -477 1279 -434 76 6 240 32 276 43 9 3 25 6 35 8 62 12 234 78 329
126 155 79 262 156 392 282 l62 62 -28 30 c-72 78 -122 133 -142 156 -12 14
-64 71 -117 127 -116 124 -116 125 -225 21 -203 -194 -508 -281 -863 -245
-272 27 -553 203 -658 412 -28 57 -57 148 -57 182 l0 23 1118 0 c1275 0 1152
-10 1152 90 0 68 6 62 14 -15 37 -353 218 -699 482 -925 82 -71 97 -83 167
-129 295 -197 640 -281 1023 -248 303 26 610 148 869 345 83 63 245 210 245
222 0 5 -10 20 -23 34 -12 13 -61 66 -107 117 -47 51 -108 118 -136 148 -28
31 -64 71 -80 90 -47 53 -80 51 -142 -9 -289 -276 -610 -370 -950 -279 -276
74 -520 299 -612 565 -68 194 -70 447 -7 619 92 247 294 438 555 524 111 37
152 43 287 45 137 1 183 -6 298 -44 118 -40 234 -103 357 -196 62 -46 108 -74
123 -74 25 0 42 18 197 210 19 24 49 60 65 80 17 20 46 56 65 80 19 24 47 57
63 74 l27 31 -58 55 c-94 88 -120 109 -218 176 -195 132 -417 216 -665 251
-109 16 -454 8 -544 -12 -11 -3 -31 -7 -45 -9 -179 -29 -398 -120 -580 -241
-376 -250 -603 -614 -656 -1053 -3 -26 -7 -49 -10 -51 -3 -4 -8 92 -5 111 1
11 -21 170 -35 243 -12 61 -67 213 -106 290 -86 169 -185 287 -351 417 -34 27
-67 53 -74 58 -6 5 -51 32 -99 60 -147 84 -345 153 -504 175 -24 4 -49 9 -54
12 -10 7 -371 15 -377 9z m357 -627 c163 -35 329 -136 419 -254 70 -92 120
-232 127 -355 l3 -45 -793 -1 -793 -2 6 47 c13 88 37 166 70 228 32 58 42 72
97 134 97 110 327 232 478 254 25 4 47 8 49 10 12 13 259 1 337 -16z"/>
<path d="M22538 15975 c-1 -1 -34 -6 -73 -10 -134 -13 -364 -69 -470 -114 -98
-42 -142 -63 -220 -105 -93 -51 -235 -144 -294 -194 l-34 -28 153 -215 c83
-118 155 -218 159 -222 4 -4 52 20 106 54 148 93 368 192 475 213 14 2 50 10
80 16 193 39 457 9 585 -65 99 -59 181 -175 200 -285 3 -16 8 -45 11 -62 6
-38 9 -167 3 -172 -2 -2 -227 -6 -499 -9 -272 -2 -506 -7 -520 -10 -14 -3 -46
-9 -72 -12 -138 -15 -331 -77 -457 -146 -97 -53 -118 -69 -199 -150 -148 -148
-213 -320 -215 -569 -1 -133 5 -184 33 -290 68 -256 255 -469 523 -595 82 -39
226 -82 301 -91 28 -3 69 -9 91 -13 50 -8 217 -6 310 3 266 28 516 137 694
302 l61 56 0 -139 c0 -199 -29 -183 325 -183 l285 0 15 24 c14 21 15 136 12
1067 -1 574 -6 1057 -10 1074 -5 16 -14 59 -22 96 -35 165 -121 330 -229 440
-126 129 -360 256 -541 295 -150 32 -198 37 -372 39 -105 2 -193 2 -195 0z
m677 -1847 c-3 -176 -8 -205 -50 -293 -94 -197 -359 -337 -635 -336 -164 1
-267 20 -370 68 -140 66 -210 173 -210 323 0 200 112 311 364 360 77 15 154
18 497 19 l407 2 -3 -143z"/>
<path d="M25719 15964 c-252 -47 -534 -228 -696 -448 -29 -39 -43 -52 -44 -40
0 11 -1 111 -2 222 -2 195 -3 205 -23 221 -20 16 -52 17 -327 17 -277 -1 -307
-3 -324 -19 -20 -17 -20 -42 -20 -1475 l-1 -1457 21 -22 c20 -23 22 -23 327
-23 305 0 307 0 327 23 20 22 21 30 20 682 0 692 3 786 33 931 39 188 135 379
241 481 80 77 103 93 184 133 111 55 196 76 355 86 130 8 136 14 133 136 -1
51 -2 191 -3 310 -2 211 -3 217 -25 238 -25 24 -63 25 -176 4z"/>
<path d="M17219 15914 c-20 -21 -20 -30 -20 -950 0 -809 3 -1035 15 -1095 2
-8 6 -36 10 -64 19 -119 59 -241 117 -357 120 -239 367 -435 640 -506 383
-101 758 -34 1049 186 81 61 220 202 220 224 0 5 4 7 9 4 4 -3 8 -89 8 -191 0
-165 2 -187 18 -205 17 -19 31 -20 325 -20 280 0 310 2 330 18 l22 17 0 1457
c0 1372 -1 1459 -18 1480 l-17 24 -308 -1 c-303 0 -309 0 -330 -22 l-22 -21
-2 -859 c-1 -779 -3 -865 -19 -938 -21 -97 -72 -210 -127 -282 -84 -112 -251
-220 -399 -259 -83 -21 -263 -26 -358 -9 -208 38 -356 174 -421 388 -43 142
-44 166 -46 1085 l-1 882 -25 18 c-21 15 -56 17 -327 18 -297 0 -303 0 -323
-22z"/>
</g>
</svg>
